<?xml version="1.0" standalone="no"?>
<!DOCTYPE svg PUBLIC "-//W3C//DTD SVG 20010904//EN"
 "http://www.w3.org/TR/2001/REC-SVG-20010904/DTD/svg10.dtd">
<svg version="1.0" xmlns="http://www.w3.org/2000/svg"
 width="4000.000000pt" height="4000.000000pt" viewBox="0 0 4000.000000 4000.000000"
 preserveAspectRatio="xMidYMid meet">

<g transform="translate(0.000000,4000.000000) scale(0.100000,-0.100000)"
fill="#000000" stroke="none">
<path d="M10726 28172 c-10 -17 19 -55 117 -152 246 -246 10744 -10732 12535
-12521 1524 -1522 1962 -1966 1960 -1982 -2 -14 -14 -24 -35 -29 -18 -5 -517
-7 -1110 -6 -1010 3 -1080 4 -1103 21 -14 9 -1325 1314 -2913 2900 -4459 4449
-4748 4737 -4770 4737 -10 0 -31 -9 -45 -21 -61 -47 -9210 -9191 -9215 -9209
-3 -11 1 -21 10 -24 8 -3 1537 -6 3397 -6 l3383 0 39 28 c65 48 4141 4121
4148 4145 5 19 -75 102 -549 575 -414 412 -560 553 -575 550 -11 -2 -849 -832
-1863 -1844 l-1842 -1841 -54 -6 c-74 -9 -2033 -9 -2121 -1 -67 7 -70 8 -70
33 0 21 474 499 2667 2688 1763 1759 2675 2663 2688 2663 20 0 1481 -1453
5520 -5489 1274 -1273 1486 -1481 1520 -1491 29 -8 931 -10 3415 -8 3163 3
3375 4 3378 20 2 11 -431 450 -1315 1333 -2944 2940 -9799 9784 -11500 11481
-1692 1687 -1815 1812 -1804 1832 l12 22 1114 0 1113 0 69 -63 c64 -60 3403
-3392 6296 -6284 1183 -1183 1315 -1312 1337 -1306 15 4 758 738 1910 1888
1037 1035 2268 2264 2737 2731 3510 3499 4614 4606 4611 4622 -3 16 -190 17
-3401 20 -2976 2 -3401 0 -3420 -13 -11 -8 -951 -944 -2089 -2081 -1436 -1435
-2068 -2073 -2068 -2087 0 -29 1086 -1117 1115 -1117 13 0 619 599 1835 1816
998 999 1833 1829 1854 1845 l39 29 1112 0 c1006 0 1113 -2 1119 -16 3 -9 6
-19 6 -23 0 -8 -2408 -2415 -4330 -4330 -799 -796 -1020 -1011 -1039 -1011
-20 0 -527 502 -2438 2413 -3550 3548 -4550 4543 -4587 4561 -30 14 -362 16
-3414 15 -1860 0 -3383 -3 -3386 -7z"/>
</g>
</svg>
